<?xml version="1.0" encoding="utf-8"?><!-- Uploaded to: SVG Repo, www.svgrepo.com, Generator: SVG Repo Mixer Tools -->
<svg width="800px" height="800px" viewBox="0 0 24 24" fill="none" xmlns="http://www.w3.org/2000/svg">
  <defs>
    <linearGradient id="gradient1" x1="0%" y1="0%" x2="100%" y2="100%">
      <stop offset="25.9336%" style="stop-color:#FFDB6E; stop-opacity:1" />
      <stop offset="100%" style="stop-color:#FFBC5E; stop-opacity:1" />
    </linearGradient>
  </defs>
  <path d="M2 10L12 4.5L22 10L17.9457 12.2298M2 10L6.05427 12.2298M2 10V16M6 17.5V12.5C6 12.4084 6.01848 12.3182 6.05427 12.2298M6 17.5C6 18.6046 8.68629 19.5 12 19.5C15.3137 19.5 18 18.6046 18 17.5M6 17.5C6 16.3954 8.68629 15.5 12 15.5C15.3137 15.5 18 16.3954 18 17.5M18 17.5V12.5C18 12.4084 17.9815 12.3182 17.9457 12.2298M17.9457 12.2298C17.9334 12.1993 17.9189 12.1691 17.9025 12.139C17.3927 11.2067 14.9439 10.5 12 10.5C9.05606 10.5 6.60733 11.2067 6.09749 12.139C6.08105 12.1691 6.06663 12.1993 6.05427 12.2298" stroke="url(#gradient1)" stroke-width="2" stroke-linecap="round" stroke-linejoin="round"/>
</svg>
